<?xml version="1.0" encoding="UTF-8" standalone="no"?>
<!DOCTYPE svg PUBLIC "-//W3C//DTD SVG 1.0//EN" "http://www.w3.org/TR/2001/PR-SVG-20010719/DTD/svg10.dtd">
<svg width="25cm" height="15cm" viewBox="338 231 490 282" xmlns="http://www.w3.org/2000/svg" xmlns:xlink="http://www.w3.org/1999/xlink">
  <g>
    <path style="fill: #ffffff" d="M 516.963 268.14 L 668.277,268.14 L 698.54,350.06 L 668.277,431.98 L 516.963,431.98 L 486.7,350.06 L 516.963,268.14z"/>
    <path style="fill: none; fill-opacity:0; stroke-width: 1.28; stroke: #000000" d="M 516.963 268.14 L 668.277,268.14 L 698.54,350.06 L 668.277,431.98 L 516.963,431.98 L 486.7,350.06 L 516.963,268.14"/>
    <text font-size="8.192" style="fill: #000000;text-anchor:middle;font-family:sans-serif;font-style:normal;font-weight:normal" x="592.62" y="352.62">
      <tspan x="592.62" y="352.62"></tspan>
    </text>
  </g>
  <text font-size="14.4498" style="fill: #000000;text-anchor:start;font-family:sans-serif;font-style:normal;font-weight:normal" x="538.676" y="354.86">
    <tspan x="538.676" y="354.86">Application Core</tspan>
  </text>
  <g>
    <path style="fill: none; fill-opacity:0; stroke-width: 1.28; stroke: #000000" d="M 476.723 231.75 L 704.087,231.75 L 749.56,351.165 L 704.087,470.58 L 476.723,470.58 L 431.25,351.165 L 476.723,231.75"/>
    <text font-size="8.192" style="fill: #000000;text-anchor:middle;font-family:sans-serif;font-style:normal;font-weight:normal" x="590.405" y="353.725">
      <tspan x="590.405" y="353.725"></tspan>
    </text>
  </g>
  <g>
    <rect style="fill: #ffffff" x="767.96" y="244.3" width="21.76" height="19.2"/>
    <ellipse style="fill: #ffffff" cx="778.84" cy="263.5" rx="10.88" ry="3.2"/>
    <ellipse style="fill: #ffffff" cx="778.84" cy="244.3" rx="10.88" ry="3.2"/>
    <ellipse style="fill: none; fill-opacity:0; stroke-width: 1.28; stroke: #000000" cx="778.84" cy="244.3" rx="10.88" ry="3.2"/>
    <path style="fill: none; fill-opacity:0; stroke-width: 1.28; stroke: #000000" d="M 789.72 244.3 L 789.72,263.5 C 789.72,265.267 784.849,266.7 778.84,266.7 C 772.831,266.7 767.96,265.267 767.96,263.5 L 767.96,244.3"/>
    <text font-size="8.192" style="fill: #000000;text-anchor:middle;font-family:sans-serif;font-style:normal;font-weight:normal" x="778.84" y="274.38">
      <tspan x="778.84" y="274.38"></tspan>
    </text>
  </g>
  <g>
    <rect style="fill: #b3b3b3" x="403.971" y="236.48" width="10.1053" height="23.5789"/>
    <rect style="fill: none; fill-opacity:0; stroke-width: 0.96; stroke: #000000" x="403.971" y="236.48" width="10.1053" height="23.5789"/>
    <rect style="fill: none; fill-opacity:0; stroke-width: 0.12; stroke: #000000" x="404.982" y="237.895" width="8.08421" height="2.69474"/>
    <rect style="fill: none; fill-opacity:0; stroke-width: 0.12; stroke: #000000" x="404.982" y="240.589" width="8.08421" height="2.69474"/>
    <rect style="fill: none; fill-opacity:0; stroke-width: 0.12; stroke: #000000" x="404.982" y="243.284" width="8.08421" height="2.69474"/>
    <rect style="fill: none; fill-opacity:0; stroke-width: 0.12; stroke: #000000" x="404.982" y="245.979" width="8.08421" height="2.69474"/>
    <rect style="fill: none; fill-opacity:0; stroke-width: 0.12; stroke: #000000" x="404.982" y="249.213" width="5.05263" height="1.61684"/>
    <ellipse style="fill: #00ff00" cx="412.561" cy="249.482" rx="0.353684" ry="0.353684"/>
    <ellipse style="fill: none; fill-opacity:0; stroke-width: 0.12; stroke: #000000" cx="412.561" cy="249.482" rx="0.353684" ry="0.353684"/>
    <ellipse style="fill: #ffff00" cx="412.561" cy="250.56" rx="0.353684" ry="0.353684"/>
    <ellipse style="fill: none; fill-opacity:0; stroke-width: 0.12; stroke: #000000" cx="412.561" cy="250.56" rx="0.353684" ry="0.353684"/>
    <rect style="fill: #ffffff" x="410.539" y="249.752" width="1.21263" height="1.07789"/>
    <rect style="fill: none; fill-opacity:0; stroke-width: 0.12; stroke: #000000" x="410.539" y="249.752" width="1.21263" height="1.07789"/>
    <path style="fill: none; fill-opacity:0; stroke-width: 0.12; stroke: #000000" d="M 405.655 252.985 L 405.655,258.88"/>
    <path style="fill: none; fill-opacity:0; stroke-width: 0.12; stroke: #000000" d="M 407.339 252.985 L 407.339,258.88"/>
    <path style="fill: none; fill-opacity:0; stroke-width: 0.12; stroke: #000000" d="M 409.024 252.985 L 409.024,258.88"/>
    <path style="fill: none; fill-opacity:0; stroke-width: 0.12; stroke: #000000" d="M 410.708 252.985 L 410.708,258.88"/>
    <path style="fill: none; fill-opacity:0; stroke-width: 0.12; stroke: #000000" d="M 412.392 252.985 L 412.392,258.88"/>
    <path style="fill: none; fill-opacity:0; stroke-width: 0.12; stroke: #000000" d="M 414.076 252.985 L 414.076,258.88"/>
    <polygon style="fill: #999999" points="401.95,262.08 403.971,258.038 403.971,260.059 414.076,260.059 414.076,258.038 416.771,262.08 "/>
    <polygon style="fill: none; fill-opacity:0; stroke-width: 0.12; stroke: #000000" points="401.95,262.08 403.971,258.038 403.971,260.059 414.076,260.059 414.076,258.038 416.771,262.08 "/>
    <text font-size="8.192" style="fill: #000000;text-anchor:middle;font-family:sans-serif;font-style:normal;font-weight:normal" x="409.361" y="270.434">
      <tspan x="409.361" y="270.434"></tspan>
    </text>
  </g>
  <g>
    <rect style="fill: #d9d9cd" x="369.88" y="294.02" width="25.6" height="21.3333"/>
    <rect style="fill: none; fill-opacity:0; stroke-width: 1.28; stroke: #000000" x="369.88" y="294.02" width="25.6" height="21.3333"/>
    <rect style="fill: none; fill-opacity:0; stroke-width: 0.128; stroke: #000000" x="369.88" y="294.02" width="25.6" height="21.3333"/>
    <rect style="fill: #a1a1a1" x="371.302" y="295.442" width="22.7556" height="17.0667"/>
    <rect style="fill: none; fill-opacity:0; stroke-width: 1.28; stroke: #000000" x="371.302" y="295.442" width="22.7556" height="17.0667"/>
    <rect style="fill: none; fill-opacity:0; stroke-width: 0.128; stroke: #000000" x="371.302" y="295.442" width="22.7556" height="17.0667"/>
    <polygon style="fill: #d9d9cd" points="374.147,315.353 391.213,315.353 386.947,316.776 378.413,316.776 "/>
    <polygon style="fill: none; fill-opacity:0; stroke-width: 1.28; stroke: #000000" points="374.147,315.353 391.213,315.353 386.947,316.776 378.413,316.776 "/>
    <polygon style="fill: none; fill-opacity:0; stroke-width: 0.128; stroke: #000000" points="374.147,315.353 391.213,315.353 386.947,316.776 378.413,316.776 "/>
    <rect style="fill: #d9d9cd" x="378.413" y="316.776" width="8.53333" height="1.42222"/>
    <rect style="fill: none; fill-opacity:0; stroke-width: 1.28; stroke: #000000" x="378.413" y="316.776" width="8.53333" height="1.42222"/>
    <rect style="fill: none; fill-opacity:0; stroke-width: 0.128; stroke: #000000" x="378.413" y="316.776" width="8.53333" height="1.42222"/>
    <rect style="fill: #d9d9cd" x="374.147" y="318.198" width="17.0667" height="1.42222"/>
    <rect style="fill: none; fill-opacity:0; stroke-width: 1.28; stroke: #000000" x="374.147" y="318.198" width="17.0667" height="1.42222"/>
    <rect style="fill: none; fill-opacity:0; stroke-width: 0.128; stroke: #000000" x="374.147" y="318.198" width="17.0667" height="1.42222"/>
  </g>
  <g>
    <line style="fill: none; fill-opacity:0; stroke-width: 1.28; stroke: #000000" x1="746.757" y1="427.989" x2="722.28" y2="423.88"/>
    <polygon style="fill: #000000" points="745.929,432.92 756.619,429.644 747.585,423.058 "/>
    <polygon style="fill: none; fill-opacity:0; stroke-width: 1.28; stroke: #000000" points="745.929,432.92 756.619,429.644 747.585,423.058 "/>
  </g>
  <g>
    <line style="fill: none; fill-opacity:0; stroke-width: 1.28; stroke: #000000" x1="762.417" y1="401.049" x2="739.25" y2="379.75"/>
    <polygon style="fill: #000000" points="759.033,404.73 769.779,407.817 765.801,397.368 "/>
    <polygon style="fill: none; fill-opacity:0; stroke-width: 1.28; stroke: #000000" points="759.033,404.73 769.779,407.817 765.801,397.368 "/>
  </g>
  <text font-size="12.8" style="fill: #000000;text-anchor:start;font-family:sans-serif;font-style:normal;font-weight:normal" x="635.878" y="351.165">
    <tspan x="635.878" y="351.165"></tspan>
  </text>
  <text font-size="12.8" style="fill: #000000;text-anchor:start;font-family:sans-serif;font-style:normal;font-weight:normal" x="635.878" y="351.165">
    <tspan x="635.878" y="351.165"></tspan>
  </text>
  <text font-size="12.8" style="fill: #000000;text-anchor:start;font-family:sans-serif;font-style:normal;font-weight:normal" x="511.25" y="309.25">
    <tspan x="511.25" y="309.25">Client</tspan>
    <tspan x="511.25" y="325.25">Port</tspan>
  </text>
  <text font-size="12.8" style="fill: #000000;text-anchor:start;font-family:sans-serif;font-style:normal;font-weight:normal" x="635.878" y="351.165">
    <tspan x="635.878" y="351.165"></tspan>
  </text>
  <text font-size="12.8" style="fill: #000000;text-anchor:start;font-family:sans-serif;font-style:normal;font-weight:normal" x="565.25" y="254.75">
    <tspan x="565.25" y="254.75">Adapters</tspan>
  </text>
  <text font-size="12.8" style="fill: #000000;text-anchor:start;font-family:sans-serif;font-style:normal;font-weight:normal" x="635.878" y="351.165">
    <tspan x="635.878" y="351.165"></tspan>
  </text>
  <text font-size="12.8" style="fill: #000000;text-anchor:start;font-family:sans-serif;font-style:normal;font-weight:normal" x="471.25" y="291.25">
    <tspan x="471.25" y="291.25">API</tspan>
  </text>
  <text font-size="12.8" style="fill: #000000;text-anchor:start;font-family:sans-serif;font-style:normal;font-weight:normal" x="451.25" y="319.75">
    <tspan x="451.25" y="319.75">Web-UI</tspan>
  </text>
  <g>
    <line style="fill: none; fill-opacity:0; stroke-width: 2; stroke: #000000" x1="427.533" y1="266.655" x2="446.467" y2="273.845"/>
    <polygon style="fill: #000000" points="429.309,261.981 418.185,263.105 425.758,271.329 "/>
    <polygon style="fill: none; fill-opacity:0; stroke-width: 2; stroke: #000000" points="429.309,261.981 418.185,263.105 425.758,271.329 "/>
    <polygon style="fill: #000000" points="444.691,278.519 455.815,277.395 448.242,269.171 "/>
    <polygon style="fill: none; fill-opacity:0; stroke-width: 2; stroke: #000000" points="444.691,278.519 455.815,277.395 448.242,269.171 "/>
  </g>
  <g>
    <line style="fill: none; fill-opacity:0; stroke-width: 2; stroke: #000000" x1="406.309" y1="308.751" x2="431.921" y2="313.319"/>
    <polygon style="fill: #000000" points="407.187,303.829 396.464,306.996 405.431,313.674 "/>
    <polygon style="fill: none; fill-opacity:0; stroke-width: 2; stroke: #000000" points="407.187,303.829 396.464,306.996 405.431,313.674 "/>
    <polygon style="fill: #000000" points="431.043,318.241 441.766,315.074 432.799,308.396 "/>
    <polygon style="fill: none; fill-opacity:0; stroke-width: 2; stroke: #000000" points="431.043,318.241 441.766,315.074 432.799,308.396 "/>
  </g>
  <text font-size="12.8" style="fill: #000000;text-anchor:start;font-family:sans-serif;font-style:normal;font-weight:normal" x="677.75" y="286.75">
    <tspan x="677.75" y="286.75">MySQL</tspan>
  </text>
  <text font-size="12.8" style="fill: #000000;text-anchor:start;font-family:sans-serif;font-style:normal;font-weight:normal" x="689.75" y="318.25">
    <tspan x="689.75" y="318.25">NullDB</tspan>
  </text>
  <g>
    <line style="fill: none; fill-opacity:0; stroke-width: 2; stroke: #000000" x1="757.838" y1="270.299" x2="734.662" y2="278.201"/>
    <polygon style="fill: #000000" points="759.452,275.032 767.303,267.073 756.225,265.567 "/>
    <polygon style="fill: none; fill-opacity:0; stroke-width: 2; stroke: #000000" points="759.452,275.032 767.303,267.073 756.225,265.567 "/>
    <polygon style="fill: #000000" points="733.048,273.468 725.197,281.427 736.275,282.933 "/>
    <polygon style="fill: none; fill-opacity:0; stroke-width: 2; stroke: #000000" points="733.048,273.468 725.197,281.427 736.275,282.933 "/>
  </g>
  <g>
    <path style="fill: none; fill-opacity:0; stroke-width: 2; stroke: #000000" d="M 733.75 301.75 C 759.75,274.75 777.75,317.25 750.75,317.25"/>
    <polygon style="fill: #000000" points="750.75,312.25 740.75,317.25 750.75,322.25 "/>
    <polygon style="fill: none; fill-opacity:0; stroke-width: 2; stroke: #000000" points="750.75,312.25 740.75,317.25 750.75,322.25 "/>
  </g>
  <text font-size="12.8" style="fill: #000000;text-anchor:start;font-family:sans-serif;font-style:normal;font-weight:normal" x="675.75" y="418.75">
    <tspan x="675.75" y="418.75">Custom</tspan>
  </text>
  <text font-size="12.8" style="fill: #000000;text-anchor:start;font-family:sans-serif;font-style:normal;font-weight:normal" x="694.25" y="382.75">
    <tspan x="694.25" y="382.75">Panda</tspan>
  </text>
  <text font-size="12.8" style="fill: #000000;text-anchor:start;font-family:sans-serif;font-style:normal;font-weight:normal" x="625.2" y="304.2">
    <tspan x="625.2" y="304.2">Storage</tspan>
    <tspan x="625.2" y="320.2">Port</tspan>
  </text>
  <g>
    <path style="fill: #ffffff" d="M 774.396 424.679 C 769.033,424.42 758.631,429.863 760.094,441.528 C 761.556,453.192 768.545,455.784 771.471,452.414 C 774.396,449.045 766.92,468.745 781.223,473.929 C 795.525,479.113 802.839,470.818 800.726,464.856 C 798.613,458.895 813.241,478.854 820.068,467.448 C 826.894,456.043 813.079,445.157 816.004,446.712 C 818.93,448.267 827.869,446.193 824.944,426.753 C 822.018,407.312 795.688,422.346 798.613,419.495 C 801.539,416.644 794.225,402.387 785.123,405.238 C 776.022,408.09 775.376,413.264 774.401,424.669 L 774.396,424.679z"/>
    <path style="fill: none; fill-opacity:0; stroke-width: 2; stroke: #000000" d="M 774.396 424.679 C 769.033,424.42 758.631,429.863 760.094,441.528 C 761.556,453.192 768.545,455.784 771.471,452.414 C 774.396,449.045 766.92,468.745 781.223,473.929 C 795.525,479.113 802.839,470.818 800.726,464.856 C 798.613,458.895 813.241,478.854 820.068,467.448 C 826.894,456.043 813.079,445.157 816.004,446.712 C 818.93,448.267 827.869,446.193 824.944,426.753 C 822.018,407.312 795.688,422.346 798.613,419.495 C 801.539,416.644 794.225,402.387 785.123,405.238 C 776.022,408.09 775.376,413.264 774.401,424.669 L 774.396,424.679"/>
    <text font-size="12.7998" style="fill: #000000;text-anchor:middle;font-family:sans-serif;font-style:normal;font-weight:normal" x="795.106" y="446.103">
      <tspan x="795.106" y="446.103">SaaS</tspan>
    </text>
  </g>
  <text font-size="12.7998" style="fill: #000000;text-anchor:start;font-family:sans-serif;font-style:normal;font-weight:normal" x="635.878" y="351.165">
    <tspan x="635.878" y="351.165"></tspan>
  </text>
  <text font-size="12.7998" style="fill: #000000;text-anchor:start;font-family:sans-serif;font-style:normal;font-weight:normal" x="614.75" y="374.25">
    <tspan x="614.75" y="374.25">Video</tspan>
    <tspan x="614.75" y="390.25">Processing</tspan>
    <tspan x="614.75" y="406.25">Port</tspan>
  </text>
  <g>
    <rect style="fill: #ffffff" x="339.194" y="385.75" width="62.1118" height="9.93789"/>
    <rect style="fill: none; fill-opacity:0; stroke-width: 2; stroke: #000000" x="339.194" y="385.75" width="62.1118" height="9.93789"/>
    <rect style="fill: none; fill-opacity:0; stroke-width: 0.2; stroke: #000000" x="339.194" y="385.75" width="62.1118" height="9.93789"/>
    <rect style="fill: #4c4c4c" x="349.132" y="385.75" width="42.236" height="4.96894"/>
    <rect style="fill: none; fill-opacity:0; stroke-width: 2; stroke: #000000" x="349.132" y="385.75" width="42.236" height="4.96894"/>
    <rect style="fill: none; fill-opacity:0; stroke-width: 0.2; stroke: #000000" x="349.132" y="385.75" width="42.236" height="4.96894"/>
    <polygon style="fill: #ffffff" points="349.132,390.719 391.368,390.719 388.884,408.11 351.616,408.11 "/>
    <polygon style="fill: none; fill-opacity:0; stroke-width: 2; stroke: #000000" points="349.132,390.719 391.368,390.719 388.884,408.11 351.616,408.11 "/>
    <polygon style="fill: none; fill-opacity:0; stroke-width: 0.2; stroke: #000000" points="349.132,390.719 391.368,390.719 388.884,408.11 351.616,408.11 "/>
    <rect style="fill: #4c4c4c" x="393.852" y="388.234" width="4.96894" height="2.48447"/>
    <rect style="fill: none; fill-opacity:0; stroke-width: 2; stroke: #000000" x="393.852" y="388.234" width="4.96894" height="2.48447"/>
    <rect style="fill: none; fill-opacity:0; stroke-width: 0.2; stroke: #000000" x="393.852" y="388.234" width="4.96894" height="2.48447"/>
    <rect style="fill: #ffffff" x="341.679" y="395.688" width="2.48447" height="27.3292"/>
    <rect style="fill: none; fill-opacity:0; stroke-width: 2; stroke: #000000" x="341.679" y="395.688" width="2.48447" height="27.3292"/>
    <rect style="fill: none; fill-opacity:0; stroke-width: 0.2; stroke: #000000" x="341.679" y="395.688" width="2.48447" height="27.3292"/>
    <rect style="fill: #ffffff" x="396.337" y="395.688" width="2.48447" height="27.3292"/>
    <rect style="fill: none; fill-opacity:0; stroke-width: 2; stroke: #000000" x="396.337" y="395.688" width="2.48447" height="27.3292"/>
    <rect style="fill: none; fill-opacity:0; stroke-width: 0.2; stroke: #000000" x="396.337" y="395.688" width="2.48447" height="27.3292"/>
    <rect style="fill: #ffffff" x="344.163" y="410.595" width="52.1739" height="4.96894"/>
    <rect style="fill: none; fill-opacity:0; stroke-width: 2; stroke: #000000" x="344.163" y="410.595" width="52.1739" height="4.96894"/>
    <rect style="fill: none; fill-opacity:0; stroke-width: 0.2; stroke: #000000" x="344.163" y="410.595" width="52.1739" height="4.96894"/>
    <rect style="fill: #020202" x="341.679" y="423.017" width="2.48447" height="2.48447"/>
    <rect style="fill: none; fill-opacity:0; stroke-width: 2; stroke: #000000" x="341.679" y="423.017" width="2.48447" height="2.48447"/>
    <rect style="fill: none; fill-opacity:0; stroke-width: 0.2; stroke: #000000" x="341.679" y="423.017" width="2.48447" height="2.48447"/>
    <rect style="fill: #020202" x="396.337" y="423.017" width="2.48447" height="2.73292"/>
    <rect style="fill: none; fill-opacity:0; stroke-width: 2; stroke: #000000" x="396.337" y="423.017" width="2.48447" height="2.73292"/>
    <rect style="fill: none; fill-opacity:0; stroke-width: 0.2; stroke: #000000" x="396.337" y="423.017" width="2.48447" height="2.73292"/>
    <rect style="fill: #ffffff" x="396.337" y="420.533" width="2.48447" height="2.73292"/>
    <rect style="fill: none; fill-opacity:0; stroke-width: 2; stroke: #000000" x="396.337" y="420.533" width="2.48447" height="2.73292"/>
    <rect style="fill: none; fill-opacity:0; stroke-width: 0.2; stroke: #000000" x="396.337" y="420.533" width="2.48447" height="2.73292"/>
    <rect style="fill: #000000" x="341.679" y="420.533" width="2.48447" height="2.73292"/>
    <rect style="fill: none; fill-opacity:0; stroke-width: 2; stroke: #000000" x="341.679" y="420.533" width="2.48447" height="2.73292"/>
    <rect style="fill: none; fill-opacity:0; stroke-width: 0.2; stroke: #000000" x="341.679" y="420.533" width="2.48447" height="2.73292"/>
    <polyline style="fill: none; fill-opacity:0; stroke-width: 0.2; stroke: #000000" points="349.132,413.079 349.132,398.172 354.101,398.172 354.101,413.079 "/>
    <polyline style="fill: none; fill-opacity:0; stroke-width: 0.2; stroke: #000000" points="356.585,413.079 356.585,398.172 361.554,398.172 361.554,413.079 "/>
    <polyline style="fill: none; fill-opacity:0; stroke-width: 0.2; stroke: #000000" points="364.039,413.079 364.039,398.172 369.008,398.172 369.008,413.079 "/>
    <polyline style="fill: none; fill-opacity:0; stroke-width: 0.2; stroke: #000000" points="371.492,413.079 371.492,398.172 376.461,398.172 376.461,413.079 "/>
    <polyline style="fill: none; fill-opacity:0; stroke-width: 0.2; stroke: #000000" points="378.946,413.079 378.946,398.172 383.915,398.172 383.915,413.079 "/>
    <polyline style="fill: none; fill-opacity:0; stroke-width: 0.2; stroke: #000000" points="386.399,413.079 386.399,398.172 391.368,398.172 391.368,413.079 "/>
  </g>
  <g>
    <polygon style="fill: #b3b3b3" points="370.43,469.45 368.51,470.25 362.75,484.65 362.75,491.85 365.63,494.25 407.87,494.25 410.75,491.85 410.75,484.65 404.99,470.25 403.07,469.45 "/>
    <polygon style="fill: none; fill-opacity:0; stroke-width: 1.6; stroke: #000000" points="370.43,469.45 368.51,470.25 362.75,484.65 362.75,491.85 365.63,494.25 407.87,494.25 410.75,491.85 410.75,484.65 404.99,470.25 403.07,469.45 "/>
    <path style="fill: none; fill-opacity:0; stroke-width: 1.6; stroke: #000000" d="M 363.71 482.25 L 365.63,483.05 L 407.87,483.05 L 409.79,482.25"/>
    <path style="fill: none; fill-opacity:0; stroke-width: 1.6; stroke: #000000" d="M 407.87 483.05 L 410.75,484.65"/>
    <path style="fill: none; fill-opacity:0; stroke-width: 1.6; stroke: #000000" d="M 362.75 484.65 L 365.63,483.05"/>
    <polygon style="fill: #ffffff" points="376.19,454.25 375.23,473.45 398.27,473.45 397.31,454.25 "/>
    <polygon style="fill: none; fill-opacity:0; stroke-width: 1.6; stroke: #000000" points="376.19,454.25 375.23,473.45 398.27,473.45 397.31,454.25 "/>
    <polygon style="fill: #000000" points="372.35,473.45 370.43,479.05 403.07,479.05 401.15,473.45 "/>
    <polygon style="fill: none; fill-opacity:0; stroke-width: 1.6; stroke: #000000" points="372.35,473.45 370.43,479.05 403.07,479.05 401.15,473.45 "/>
    <ellipse style="fill: #0000ff" cx="372.35" cy="485.85" rx="0.48" ry="0.48"/>
    <ellipse style="fill: none; fill-opacity:0; stroke-width: 0.4; stroke: #000000" cx="372.35" cy="485.85" rx="0.48" ry="0.48"/>
    <ellipse style="fill: #0000ff" cx="377.15" cy="485.85" rx="0.48" ry="0.48"/>
    <ellipse style="fill: none; fill-opacity:0; stroke-width: 0.4; stroke: #000000" cx="377.15" cy="485.85" rx="0.48" ry="0.48"/>
    <ellipse style="fill: #0000ff" cx="381.95" cy="485.85" rx="0.48" ry="0.48"/>
    <ellipse style="fill: none; fill-opacity:0; stroke-width: 0.4; stroke: #000000" cx="381.95" cy="485.85" rx="0.48" ry="0.48"/>
    <ellipse style="fill: #0000ff" cx="372.35" cy="487.85" rx="0.48" ry="0.48"/>
    <ellipse style="fill: none; fill-opacity:0; stroke-width: 0.4; stroke: #000000" cx="372.35" cy="487.85" rx="0.48" ry="0.48"/>
    <ellipse style="fill: #0000ff" cx="377.15" cy="487.85" rx="0.48" ry="0.48"/>
    <ellipse style="fill: none; fill-opacity:0; stroke-width: 0.4; stroke: #000000" cx="377.15" cy="487.85" rx="0.48" ry="0.48"/>
    <ellipse style="fill: #0000ff" cx="381.95" cy="487.85" rx="0.48" ry="0.48"/>
    <ellipse style="fill: none; fill-opacity:0; stroke-width: 0.4; stroke: #000000" cx="381.95" cy="487.85" rx="0.48" ry="0.48"/>
    <ellipse style="fill: #0000ff" cx="372.35" cy="489.85" rx="0.48" ry="0.48"/>
    <ellipse style="fill: none; fill-opacity:0; stroke-width: 0.4; stroke: #000000" cx="372.35" cy="489.85" rx="0.48" ry="0.48"/>
    <ellipse style="fill: #0000ff" cx="377.15" cy="489.85" rx="0.48" ry="0.48"/>
    <ellipse style="fill: none; fill-opacity:0; stroke-width: 0.4; stroke: #000000" cx="377.15" cy="489.85" rx="0.48" ry="0.48"/>
    <ellipse style="fill: #0000ff" cx="381.95" cy="489.85" rx="0.48" ry="0.48"/>
    <ellipse style="fill: none; fill-opacity:0; stroke-width: 0.4; stroke: #000000" cx="381.95" cy="489.85" rx="0.48" ry="0.48"/>
    <ellipse style="fill: #0000ff" cx="372.35" cy="491.85" rx="0.48" ry="0.48"/>
    <ellipse style="fill: none; fill-opacity:0; stroke-width: 0.4; stroke: #000000" cx="372.35" cy="491.85" rx="0.48" ry="0.48"/>
    <ellipse style="fill: #0000ff" cx="377.15" cy="491.85" rx="0.48" ry="0.48"/>
    <ellipse style="fill: none; fill-opacity:0; stroke-width: 0.4; stroke: #000000" cx="377.15" cy="491.85" rx="0.48" ry="0.48"/>
    <ellipse style="fill: #0000ff" cx="381.95" cy="491.85" rx="0.48" ry="0.48"/>
    <ellipse style="fill: none; fill-opacity:0; stroke-width: 0.4; stroke: #000000" cx="381.95" cy="491.85" rx="0.48" ry="0.48"/>
    <ellipse style="fill: #8f8f8f" cx="386.75" cy="486.25" rx="6" ry="1.92"/>
    <ellipse style="fill: none; fill-opacity:0; stroke-width: 0.4; stroke: #000000" cx="386.75" cy="486.25" rx="6" ry="1.92"/>
    <ellipse style="fill: #8f8f8f" cx="398.75" cy="486.25" rx="6" ry="1.92"/>
    <ellipse style="fill: none; fill-opacity:0; stroke-width: 0.4; stroke: #000000" cx="398.75" cy="486.25" rx="6" ry="1.92"/>
    <text font-size="12.7998" style="fill: #000000;text-anchor:middle;font-family:sans-serif;font-style:normal;font-weight:normal" x="386.75" y="507.85">
      <tspan x="386.75" y="507.85"></tspan>
    </text>
  </g>
  <text font-size="12.7998" style="fill: #000000;text-anchor:start;font-family:sans-serif;font-style:normal;font-weight:normal" x="510.25" y="378.25">
    <tspan x="510.25" y="378.25">Print</tspan>
    <tspan x="510.25" y="394.25">Port</tspan>
  </text>
  <text font-size="12.7998" style="fill: #000000;text-anchor:start;font-family:sans-serif;font-style:normal;font-weight:normal" x="465.75" y="422.75">
    <tspan x="465.75" y="422.75">Printer</tspan>
  </text>
  <text font-size="12.7998" style="fill: #000000;text-anchor:start;font-family:sans-serif;font-style:normal;font-weight:normal" x="453.25" y="387.75">
    <tspan x="453.25" y="387.75">Plotter</tspan>
  </text>
  <g>
    <line style="fill: none; fill-opacity:0; stroke-width: 2; stroke: #000000" x1="441.75" y1="386.75" x2="418.216" y2="394.364"/>
    <polygon style="fill: #000000" points="416.677,389.607 408.701,397.442 419.755,399.121 "/>
    <polygon style="fill: none; fill-opacity:0; stroke-width: 2; stroke: #000000" points="416.677,389.607 408.701,397.442 419.755,399.121 "/>
  </g>
  <g>
    <line style="fill: none; fill-opacity:0; stroke-width: 2; stroke: #000000" x1="456.25" y1="423.75" x2="418.506" y2="456.981"/>
    <polygon style="fill: #000000" points="415.202,453.228 411.001,463.589 421.81,460.734 "/>
    <polygon style="fill: none; fill-opacity:0; stroke-width: 2; stroke: #000000" points="415.202,453.228 411.001,463.589 421.81,460.734 "/>
  </g>
</svg>
